<svg width="219" height="253" viewBox="0 0 219 253" fill="none" xmlns="http://www.w3.org/2000/svg">
<path d="M5 189V5L147 5.06003V45H187L188 228H44V189H5Z" fill="black"/>
<path d="M212 65L147 5L5 189L58.5 248H65H69H213L212 65Z" fill="black"/>
<path d="M136.5 15H15V177.5H55.5V136.5H96V96H55.5V55.5H136.5V15Z" fill="#F25A70"/>
<path d="M136.5 15H15V177.5" stroke="white" stroke-width="5"/>
<path d="M177.175 55.5H136.5V177.5H55.5V218H177.175V55.5Z" fill="#F25A70"/>
<path d="M177 55.5V218H55.5" stroke="white" stroke-width="5"/>
<path d="M147.978 2.5L148.695 3.16309L213.695 63.1631L214.494 63.9004L214.5 64.9863L215.5 247.986L215.514 250.5H57.3926L56.6484 249.68L3.14844 190.68L2.5 189.965V2.5H147.978Z" stroke="white" stroke-width="5"/>
<path d="M176.5 217.5L215.5 250.5" stroke="white" stroke-width="5"/>
</svg>
